<svg xmlns="http://www.w3.org/2000/svg" viewBox="0 0 640 420">
  <defs><linearGradient id="g" x1="0" x2="1" y1="0" y2="1"><stop stop-color="#ecfeff"/><stop offset="1" stop-color="#bae6fd"/></linearGradient></defs>
  <rect width="640" height="420" fill="url(#g)"/>
  <rect x="138" y="92" width="364" height="236" rx="32" fill="#fff" opacity=".92"/>
  <rect x="170" y="126" width="300" height="168" rx="18" fill="#0f172a" opacity=".82"/>
  <path d="M260 166c-22 10-36 33-32 59 5 31 27 66 44 65 13 0 14-31 26-31s13 31 26 31c17 1 39-34 44-65 4-26-10-49-32-59-15-7-26 2-38 2s-23-9-38-2z" fill="#67e8f9"/>
  <path d="M404 154h42M404 184h42M404 214h42" stroke="#67e8f9" stroke-width="8" stroke-linecap="round"/>
  <path d="M224 350h192" stroke="#2250f4" stroke-width="14" stroke-linecap="round" opacity=".55"/>
</svg>
