<svg xmlns="http://www.w3.org/2000/svg" viewBox="0 0 640 420">
  <defs><linearGradient id="g" x1="0" x2="1" y1="0" y2="1"><stop stop-color="#f0fdfa"/><stop offset="1" stop-color="#99f6e4"/></linearGradient></defs>
  <rect width="640" height="420" fill="url(#g)"/>
  <circle cx="500" cy="100" r="140" fill="#14b8a6" opacity=".15"/>
  <path d="M150 248c62-52 278-52 340 0v54H150z" fill="#fb7185" opacity=".72"/>
  <g fill="#fff" opacity=".94">
    <path d="M198 146c-31 16-51 51-45 89 6 45 38 95 63 94 18-1 20-45 38-45s20 44 38 45c25 1 57-49 63-94 6-38-14-73-45-89-21-10-38 3-56 3s-35-13-56-3z"/>
    <path d="M360 146c-31 16-51 51-45 89 6 45 38 95 63 94 18-1 20-45 38-45s20 44 38 45c25 1 57-49 63-94 6-38-14-73-45-89-21-10-38 3-56 3s-35-13-56-3z"/>
  </g>
  <path d="M170 294c92-28 208-28 300 0" fill="none" stroke="#14b8a6" stroke-width="12" stroke-linecap="round"/>
</svg>
